<svg preserveAspectRatio="none" width="100%" height="100%" overflow="visible" style="display: block;" viewBox="0 0 74.8256 12.25" fill="none" xmlns="http://www.w3.org/2000/svg">
<g id="Frame 8">
<path id="Cellular Connection" d="M2.19727 7.60943C2.80405 7.60943 3.2959 8.10865 3.2959 8.72369V10.9512C3.29565 11.5661 2.80389 12.0645 2.19727 12.0645H1.09863C0.492027 12.0645 0.000252504 11.566 0 10.9512V8.72369C0 8.10866 0.491871 7.60946 1.09863 7.60943H2.19727ZM7.32422 5.38287C7.93097 5.38287 8.42282 5.88114 8.42285 6.49615V10.9512C8.4226 11.5661 7.93084 12.0645 7.32422 12.0645H6.22559C5.61906 12.0644 5.12721 11.566 5.12695 10.9512V6.49615C5.12698 5.88121 5.61892 5.38298 6.22559 5.38287H7.32422ZM12.4512 2.78424C13.0579 2.78424 13.5497 3.28257 13.5498 3.89752V10.9512C13.5496 11.5661 13.0578 12.0645 12.4512 12.0645H11.3525C10.7461 12.0643 10.2542 11.5659 10.2539 10.9512V3.89752C10.254 3.28269 10.746 2.78444 11.3525 2.78424H12.4512ZM17.5791 0.185606C18.1856 0.185837 18.6775 0.684149 18.6777 1.29889V10.9512C18.6775 11.5659 18.1855 12.0643 17.5791 12.0645H16.4805C15.8738 12.0645 15.3821 11.5661 15.3818 10.9512V1.29889C15.382 0.684007 15.8738 0.185606 16.4805 0.185606H17.5791Z" fill="var(--fill-0, #121212)"/>
<path id="Wifi" d="M31.6641 9.38477C33.0711 8.17951 35.1321 8.17951 36.5391 9.38477C36.6096 9.44957 36.6504 9.54127 36.6523 9.6377C36.6542 9.73416 36.6168 9.82692 36.5488 9.89453L34.3457 12.1465C34.2812 12.2126 34.1933 12.2499 34.1016 12.25C34.0097 12.25 33.921 12.2127 33.8564 12.1465L31.6533 9.89453C31.5854 9.8269 31.5479 9.73411 31.5498 9.6377C31.5518 9.54113 31.5933 9.44954 31.6641 9.38477ZM28.7236 6.37988C31.755 3.52416 36.4501 3.52418 39.4814 6.37988C39.5499 6.44685 39.5889 6.53937 39.5898 6.63574C39.5908 6.73206 39.5534 6.82523 39.4863 6.89355L38.2129 8.19629C38.0816 8.32937 37.869 8.33268 37.7344 8.20312C36.739 7.29026 35.4444 6.78416 34.1016 6.78418C32.7595 6.78474 31.4655 7.2908 30.4707 8.20312C30.3361 8.33264 30.1234 8.32936 29.9922 8.19629L28.7188 6.89355C28.6516 6.82531 28.6144 6.73212 28.6152 6.63574C28.6161 6.53934 28.6552 6.44685 28.7236 6.37988ZM25.7842 3.38477C30.4336 -1.12793 37.7685 -1.12794 42.418 3.38477C42.4852 3.4518 42.5239 3.54313 42.5244 3.63867C42.525 3.73416 42.4873 3.82575 42.4209 3.89355L41.1455 5.19727C41.0142 5.33083 40.8013 5.33262 40.668 5.20117C38.8966 3.4956 36.5457 2.54412 34.1016 2.54395C31.6571 2.54394 29.3058 3.49542 27.5342 5.20117C27.4009 5.33301 27.1869 5.33119 27.0557 5.19727L25.7803 3.89355C25.7141 3.82574 25.6771 3.73406 25.6777 3.63867C25.6784 3.54307 25.7168 3.45176 25.7842 3.38477Z" fill="var(--fill-0, #121212)"/>
<g id="Battery">
<rect id="Border" opacity="0.35" x="50.0444" y="0.751548" width="21.84" height="10.7467" rx="2.25333" stroke="var(--stroke-0, #121212)" stroke-width="1.04"/>
<path id="Cap" opacity="0.4" d="M73.4444 4.04488V8.20488C74.2813 7.85255 74.8256 7.03294 74.8256 6.12488C74.8256 5.21682 74.2813 4.39721 73.4444 4.04488" fill="var(--fill-0, #121212)"/>
<rect id="Capacity" x="51.6044" y="2.31155" width="18.72" height="7.62667" rx="1.38667" fill="var(--fill-0, #121212)"/>
</g>
</g>
</svg>
