<svg preserveAspectRatio="none" width="100%" height="100%" overflow="visible" style="display: block;" viewBox="0 0 200 200" fill="none" xmlns="http://www.w3.org/2000/svg">
<g id="Layer_1" clip-path="url(#clip0_0_4)">
<path id="Vector" d="M97.2496 201.389H70.9838C71.0082 172.591 64.6243 144.169 52.3207 118.299C40.0172 92.4295 22.1202 69.7975 0 52.1357L16.1317 30.791C41.4209 50.9721 61.8803 76.84 75.9413 106.411C90.0022 135.983 97.2913 168.472 97.2496 201.389Z" fill="var(--fill-0, white)"/>
<path id="Vector_2" d="M137.809 116.099C125.17 126.193 114.945 139.126 107.915 153.909C100.885 168.691 97.2371 184.931 97.2498 201.387H70.9839C70.9699 180.819 75.5312 160.52 84.3188 142.044C93.1065 123.567 105.888 107.402 121.684 94.7852L137.809 116.099Z" fill="var(--fill-0, white)"/>
<path id="Vector_3" d="M159.441 199.993H133.183C133.247 159.56 120.645 120.181 97.2422 87.6888L115.694 67.9983C144.12 105.784 159.508 152.222 159.434 199.993H159.441Z" fill="var(--fill-0, white)"/>
<path id="Vector_4" d="M200 114.705C187.362 124.799 177.136 137.732 170.106 152.514C163.076 167.297 159.428 183.537 159.441 199.992H133.183C133.169 179.424 137.73 159.126 146.518 140.649C155.305 122.172 168.086 106.007 183.883 93.3906L200 114.705Z" fill="var(--fill-0, white)"/>
<path id="Vector_5" d="M79.3943 44.6693C91.412 44.6693 101.154 34.9222 101.154 22.8986C101.154 10.875 91.412 1.12793 79.3943 1.12793C67.3766 1.12793 57.6343 10.875 57.6343 22.8986C57.6343 34.9222 67.3766 44.6693 79.3943 44.6693Z" fill="var(--fill-0, white)"/>
<path id="Vector_6" d="M156.402 81.5751C167.153 81.5751 175.869 72.6126 175.869 61.5568C175.869 50.501 167.153 41.5385 156.402 41.5385C145.65 41.5385 136.934 50.501 136.934 61.5568C136.934 72.6126 145.65 81.5751 156.402 81.5751Z" fill="var(--fill-0, white)"/>
<g id="Vector_7">
</g>
</g>
<defs>
<clipPath id="clip0_0_4">
<rect width="200" height="200" fill="white"/>
</clipPath>
</defs>
</svg>
