<svg preserveAspectRatio="none" width="100%" height="100%" overflow="visible" style="display: block;" viewBox="0 0 18 18" fill="none" xmlns="http://www.w3.org/2000/svg">
<g id="emojione:flag-for-russia" clip-path="url(#clip0_0_5)">
<path id="Vector" d="M8.97187 0.5625C5.31562 0.5625 2.19375 2.925 1.04062 6.1875H16.9594C15.7781 2.925 12.6562 0.5625 8.97187 0.5625Z" fill="var(--fill-0, #F9F9F9)"/>
<path id="Vector_2" d="M8.97187 17.4375C12.6562 17.4375 15.7781 15.075 16.9312 11.8125H1.04062C2.19375 15.1031 5.31562 17.4375 8.97187 17.4375Z" fill="var(--fill-0, #D22F27)"/>
<path id="Vector_3" d="M1.04063 6.1875C0.73125 7.05937 0.5625 8.01562 0.5625 9C0.5625 9.98438 0.73125 10.9406 1.04063 11.8125H16.9594C17.2687 10.9406 17.4375 9.98438 17.4375 9C17.4375 8.01562 17.2687 7.05937 16.9594 6.1875H1.04063Z" fill="var(--fill-0, #1E50A0)"/>
<circle id="Ellipse 3" cx="9" cy="9" r="8.25" stroke="var(--stroke-0, #121212)" stroke-width="1.5"/>
</g>
<defs>
<clipPath id="clip0_0_5">
<rect width="18" height="18" fill="white"/>
</clipPath>
</defs>
</svg>
