<svg preserveAspectRatio="none" width="100%" height="100%" overflow="visible" style="display: block;" viewBox="0 0 48.5555 15.2222" fill="none" xmlns="http://www.w3.org/2000/svg">
<path id="Vector 3" d="M41.8333 0.5H6.5L4.72222 0.944444L3.16667 1.83333L2.05556 2.94444L1.16667 4.5L0.722222 5.61111L0.5 6.72222V8.94444L0.722222 10.0556L1.38889 11.3889L2.05556 12.2778L3.16667 13.1667L3.83333 13.6111L5.16667 14.2778L6.5 14.7222H41.6111L43.3889 14.2778L44.9444 13.6111L46.2778 12.5L47.1667 11.1667L47.8333 9.83333L48.0555 8.72222V6.5L47.8333 5.61111L47.1667 4.27778L46.5 2.94444L45.6111 2.05556L44.2778 1.16667L43.1667 0.722222L41.8333 0.5Z" stroke="var(--stroke-0, black)"/>
</svg>
