<svg preserveAspectRatio="none" width="100%" height="100%" overflow="visible" style="display: block;" viewBox="0 0 120 120" fill="none" xmlns="http://www.w3.org/2000/svg">
<g id="Layer_1" clip-path="url(#clip0_0_10)">
<path id="Vector" d="M58.3498 119.332H42.5903C42.605 102.054 38.7746 85.0005 31.3925 69.4786C24.0104 53.9567 13.2722 40.3774 6.02803e-05 29.7804L9.67906 16.9736C24.8526 29.0822 37.1283 44.6029 45.5648 62.3457C54.0014 80.0885 58.3748 99.5821 58.3498 119.332Z" fill="var(--fill-0, #BDA3FA)"/>
<path id="Vector_2" d="M82.6852 68.1598C75.1022 74.2161 68.967 81.9759 64.7491 90.8454C60.5311 99.7149 58.3422 109.459 58.3499 119.332H42.5903C42.5819 106.992 45.3187 94.8123 50.5913 83.7263C55.8639 72.6403 63.5326 62.9413 73.0107 55.3713L82.6852 68.1598Z" fill="var(--fill-0, #743DF9)"/>
<path id="Vector_3" d="M95.6646 119.996H79.9096C79.9482 95.7358 72.3867 72.1085 58.3453 52.6133L69.4166 40.799C86.4718 63.4701 95.7048 91.3329 95.6602 119.996H95.6646Z" fill="var(--fill-0, #BDA3FA)"/>
<path id="Vector_4" d="M120 68.8229C112.417 74.8792 106.282 82.639 102.064 91.5085C97.8459 100.378 95.657 110.122 95.6646 119.995H79.9096C79.9012 107.655 82.6379 95.4754 87.9105 84.3894C93.1831 73.3034 100.852 63.6044 110.33 56.0344L120 68.8229Z" fill="var(--fill-0, #743DF9)"/>
<path id="Vector_5" d="M47.6368 28.3019C54.8474 28.3019 60.6928 22.4536 60.6928 15.2395C60.6928 8.02531 54.8474 2.17707 47.6368 2.17707C40.4262 2.17707 34.5808 8.02531 34.5808 15.2395C34.5808 22.4536 40.4262 28.3019 47.6368 28.3019Z" fill="var(--fill-0, #BDA3FA)"/>
<path id="Vector_6" d="M93.841 48.9451C100.292 48.9451 105.522 43.5676 105.522 36.9341C105.522 30.3006 100.292 24.9231 93.841 24.9231C87.3899 24.9231 82.1603 30.3006 82.1603 36.9341C82.1603 43.5676 87.3899 48.9451 93.841 48.9451Z" fill="var(--fill-0, #BDA3FA)"/>
<g id="Vector_7">
</g>
</g>
<defs>
<clipPath id="clip0_0_10">
<rect width="120" height="120" fill="white"/>
</clipPath>
</defs>
</svg>
