<svg preserveAspectRatio="none" width="100%" height="100%" overflow="visible" style="display: block;" viewBox="0 0 150.111 321.222" fill="none" xmlns="http://www.w3.org/2000/svg">
<path id="Vector 4" d="M126.5 0.5H29.6111H20.9445L18.9445 0.722222L17.1667 1.16667L15.1667 1.61111L13.3889 2.27778L10.7222 3.38889L7.61112 5.16667L4.50001 8.72222L2.27779 12.5L1.16668 15.8333L0.500014 19.6111V22.7222V36.7222V62.0556L0.722236 92.2778V121.611L0.944458 143.611V155.167L1.16668 201.167L1.3889 230.278L1.61112 251.611V271.833L1.83335 297.611L2.05557 304.278L2.94446 307.389L4.94446 311.389L6.94446 314.056L9.61112 316.722L12.5 318.278L16.0556 319.611L19.6111 320.5L23.1667 320.722H126.056L131.833 320.278L137.167 318.5L141.389 315.833L144.5 312.5L146.278 308.944L147.611 305.611L148.056 302.278L148.5 288.278L148.722 239.389L148.944 165.389L149.389 118.278V78.9444L149.611 58.2778V34.2778V27.3889L149.389 23.3889V19.1667L148.944 16.9444L147.833 12.7222L145.611 8.94444L142.278 5.16667C140.87 4.35185 138.011 2.72222 137.833 2.72222C137.656 2.72222 134.796 1.68519 133.389 1.16667L130.056 0.722222L126.5 0.5Z" fill="var(--fill-0, #743DF9)" stroke="var(--stroke-0, #743DF9)"/>
</svg>
